<svg style="position: absolute; width: 0; height: 0; overflow: hidden;" version="1.1" xmlns="http://www.w3.org/2000/svg" xmlns:xlink="http://www.w3.org/1999/xlink">
<defs>
<symbol id="pencil" viewBox="0 0 16 16">
<title>pencil</title>
<path class="path1" d="M13.5 0c1.381 0 2.5 1.119 2.5 2.5 0 0.563-0.186 1.082-0.5 1.5l-1 1-3.5-3.5 1-1c0.418-0.314 0.937-0.5 1.5-0.5zM1 11.5l-1 4.5 4.5-1 9.25-9.25-3.5-3.5-9.25 9.25zM11.181 5.681l-7 7-0.862-0.862 7-7 0.862 0.862z"></path>
</symbol>
<symbol id="floppy-disk" viewBox="0 0 16 16">
<title>floppy-disk</title>
<path class="path1" d="M14 0h-14v16h16v-14l-2-2zM8 2h2v4h-2v-4zM14 14h-12v-12h1v5h9v-5h1.172l0.828 0.828v11.172z"></path>
</symbol>
<symbol id="undo2" viewBox="0 0 16 16">
<title>undo2</title>
<path class="path1" d="M11.904 16c1.777-3.219 2.076-8.13-4.904-7.966v3.966l-6-6 6-6v3.881c8.359-0.218 9.29 7.378 4.904 12.119z"></path>
</symbol>
<symbol id="lock" viewBox="0 0 16 16">
<title>lock</title>
<path class="path1" d="M9.25 7h-0.25v-3c0-1.654-1.346-3-3-3h-2c-1.654 0-3 1.346-3 3v3h-0.25c-0.412 0-0.75 0.338-0.75 0.75v7.5c0 0.412 0.338 0.75 0.75 0.75h8.5c0.412 0 0.75-0.338 0.75-0.75v-7.5c0-0.412-0.338-0.75-0.75-0.75zM3 4c0-0.551 0.449-1 1-1h2c0.551 0 1 0.449 1 1v3h-4v-3z"></path>
</symbol>
<symbol id="unlocked" viewBox="0 0 16 16">
<title>unlocked</title>
<path class="path1" d="M12 1c1.654 0 3 1.346 3 3v3h-2v-3c0-0.551-0.449-1-1-1h-2c-0.551 0-1 0.449-1 1v3h0.25c0.412 0 0.75 0.338 0.75 0.75v7.5c0 0.412-0.338 0.75-0.75 0.75h-8.5c-0.412 0-0.75-0.338-0.75-0.75v-7.5c0-0.412 0.338-0.75 0.75-0.75h6.25v-3c0-1.654 1.346-3 3-3h2z"></path>
</symbol>
<symbol id="bin" viewBox="0 0 16 16">
<title>bin</title>
<path class="path1" d="M2 5v10c0 0.55 0.45 1 1 1h9c0.55 0 1-0.45 1-1v-10h-11zM5 14h-1v-7h1v7zM7 14h-1v-7h1v7zM9 14h-1v-7h1v7zM11 14h-1v-7h1v7z"></path>
<path class="path2" d="M13.25 2h-3.25v-1.25c0-0.412-0.338-0.75-0.75-0.75h-3.5c-0.412 0-0.75 0.338-0.75 0.75v1.25h-3.25c-0.413 0-0.75 0.337-0.75 0.75v1.25h13v-1.25c0-0.413-0.338-0.75-0.75-0.75zM9 2h-3v-0.987h3v0.987z"></path>
</symbol>
<symbol id="cool" viewBox="0 0 16 16">
<title>cool</title>
<path class="path1" d="M8 16c4.418 0 8-3.582 8-8s-3.582-8-8-8-8 3.582-8 8 3.582 8 8 8zM8 1.5c3.59 0 6.5 2.91 6.5 6.5s-2.91 6.5-6.5 6.5-6.5-2.91-6.5-6.5 2.91-6.5 6.5-6.5zM12.5 4c0.275 0 0.5 0.225 0.5 0.5v1.5c0 0.55-0.45 1-1 1h-2c-0.55 0-1-0.45-1-1h-2c0 0.55-0.45 1-1 1h-2c-0.55 0-1-0.45-1-1v-1.5c0-0.275 0.225-0.5 0.5-0.5h3c0.275 0 0.5 0.225 0.5 0.5v0.5h2v-0.5c0-0.275 0.225-0.5 0.5-0.5h3zM8 12c1.456 0 2.731-0.778 3.43-1.942l0.857 0.515c-0.874 1.454-2.467 2.427-4.288 2.427-0.757 0-1.475-0.169-2.118-0.47l0.518-0.864c0.49 0.214 1.031 0.334 1.6 0.334z"></path>
</symbol>
<symbol id="wondering" viewBox="0 0 16 16">
<title>wondering</title>
<path class="path1" d="M8 16c4.418 0 8-3.582 8-8s-3.582-8-8-8-8 3.582-8 8 3.582 8 8 8zM8 1.5c3.59 0 6.5 2.91 6.5 6.5s-2.91 6.5-6.5 6.5-6.5-2.91-6.5-6.5 2.91-6.5 6.5-6.5zM11.652 9.4l0.351 1.2-6.828 2-0.351-1.2zM4 5c0-0.552 0.448-1 1-1s1 0.448 1 1c0 0.552-0.448 1-1 1s-1-0.448-1-1zM10 5c0-0.552 0.448-1 1-1s1 0.448 1 1c0 0.552-0.448 1-1 1s-1-0.448-1-1z"></path>
</symbol>
<symbol id="sleepy" viewBox="0 0 16 16">
<title>sleepy</title>
<path class="path1" d="M8 16c4.418 0 8-3.582 8-8s-3.582-8-8-8-8 3.582-8 8 3.582 8 8 8zM8 1.5c3.59 0 6.5 2.91 6.5 6.5s-2.91 6.5-6.5 6.5-6.5-2.91-6.5-6.5 2.91-6.5 6.5-6.5z"></path>
<path class="path2" d="M10 10.5c0 1.381-0.895 2.5-2 2.5s-2-1.119-2-2.5c0-1.381 0.895-2.5 2-2.5s2 1.119 2 2.5z"></path>
<path class="path3" d="M6.5 5.313c-0.128 0-0.256-0.049-0.354-0.146-0.302-0.302-0.991-0.302-1.293 0-0.195 0.195-0.512 0.195-0.707 0s-0.195-0.512 0-0.707c0.696-0.696 2.011-0.696 2.707 0 0.195 0.195 0.195 0.512 0 0.707-0.098 0.098-0.226 0.146-0.354 0.146z"></path>
<path class="path4" d="M11.5 5.313c-0.128 0-0.256-0.049-0.354-0.146-0.302-0.302-0.991-0.302-1.293 0-0.195 0.195-0.512 0.195-0.707 0s-0.195-0.512 0-0.707c0.696-0.696 2.011-0.696 2.707 0 0.195 0.195 0.195 0.512 0 0.707-0.098 0.098-0.226 0.146-0.354 0.146z"></path>
</symbol>
</defs>
</svg>
